<svg width="490" height="381" fill="none" xmlns="http://www.w3.org/2000/svg"><style>.mono{font-family:SFMono-Regular,Menlo,Monaco,Consolas,&quot;Liberation Mono&quot;,&quot;Courier New&quot;,monospace}</style><g id="Group 71"><g id="Group 65"><path id="Rectangle 40" d="M0 32h490v343a6 6 0 0 1-6 6H6a6 6 0 0 1-6-6V32z" fill="#282A36"/><text id="1" class="mono" fill="#fff" xml:space="preserve" style="white-space:pre" font-size="18" font-weight="500" letter-spacing="0em"><tspan x="29.914" y="87.25">1</tspan></text><text id="2" class="mono" fill="#fff" xml:space="preserve" style="white-space:pre" font-size="18" font-weight="500" letter-spacing="0em"><tspan x="29.914" y="154.221">2</tspan></text><text id="5" class="mono" fill="#fff" xml:space="preserve" style="white-space:pre" font-size="18" font-weight="500" letter-spacing="0em"><tspan x="29.914" y="355.178">5</tspan></text><path id="Rectangle 14" d="M0 6a6 6 0 0 1 6-6h478a6 6 0 0 1 6 6v26H0V6z" fill="#2F313C"/><circle id="Ellipse 11" cx="20.179" cy="16.144" r="5.381" fill="#6422F1"/><circle id="Ellipse 12" cx="35.246" cy="16.144" r="5.381" fill="#F46591"/><circle id="Ellipse 13" cx="50.314" cy="16.144" r="5.381" fill="#2BD38D"/><g id="Group 64" fill="#fff" fill-opacity=".2"><rect id="Rectangle 41" x="178.391" y="66.729" width="219.559" height="25.831" rx="12.915"/><rect id="Rectangle 42" x="77.265" y="66.346" width="84.309" height="26.563" rx="13.282"/></g></g><path id="Rectangle 48" fill="#F35183" d="M76.221 327.359h8.61v25.831h-8.61z"/></g></svg>
