<svg xmlns="http://www.w3.org/2000/svg" width="66" height="66" viewBox="0 0 66 66" fill="none"><circle opacity="0.1" cx="33" cy="33" r="33" fill="#11D147"></circle><g clip-path="url(#clip0)"><path d="M33 16.1177L41.25 19.8677L33 23.6177L25.125 19.8677L33 16.1177Z" fill="#11D147"></path><path d="M31.5 25.3952L24.75 22.1807V28.8677C24.75 29.1752 24.936 29.4497 25.221 29.5637L31.5 32.0762V25.3952Z" fill="#11D147"></path><path d="M34.5 25.4072V32.0747L40.779 29.5637C41.064 29.4497 41.25 29.1737 41.25 28.8677V22.3397L34.5 25.4072Z" fill="#11D147"></path><path d="M42.75 31.1178L51 34.8678L42.75 38.6178L34.875 34.8678L42.75 31.1178Z" fill="#11D147"></path><path d="M41.25 40.3953L34.5 37.1808V43.8678C34.5 44.1753 34.686 44.4498 34.971 44.5638L41.25 47.0748V40.3953Z" fill="#11D147"></path><path d="M44.25 40.4072V47.0747L50.529 44.5637C50.814 44.4497 51 44.1752 51 43.8677V37.3397L44.25 40.4072Z" fill="#11D147"></path><path d="M23.25 31.1178L31.5 34.8678L23.25 38.6178L15.375 34.8678L23.25 31.1178Z" fill="#11D147"></path><path d="M21.75 40.3953L15 37.1808V43.8678C15 44.1753 15.186 44.4498 15.471 44.5638L21.75 47.0763V40.3953Z" fill="#11D147"></path><path d="M24.75 40.4072V47.0747L31.029 44.5637C31.314 44.4497 31.5 44.1752 31.5 43.8677V37.3397L24.75 40.4072Z" fill="#11D147"></path></g><defs><clipPath id="clip0"><rect width="36" height="36" fill="white" transform="translate(15 14)"></rect></clipPath></defs></svg>
