<svg xmlns="http://www.w3.org/2000/svg" width="66" height="66" viewBox="0 0 66 66" fill="none"><circle opacity="0.1" cx="33" cy="33" r="33" fill="#E2111E"></circle><g clip-path="url(#clip0)"><path d="M41.2378 18.2283C39.048 17.4363 36.1219 17 32.9996 17C29.8773 17 26.9513 17.4365 24.7614 18.2289C22.8488 18.9212 21.707 19.8246 21.707 20.6465C21.707 21.4684 22.8488 22.3716 24.7615 23.0635C26.9513 23.856 29.877 24.2925 32.9996 24.2925C36.1222 24.2925 39.048 23.856 41.2378 23.0635C43.1504 22.3713 44.2922 21.4679 44.2922 20.6459C44.2922 19.8239 43.1504 18.9208 41.2378 18.2283Z" fill="#E2111E"></path><path d="M33.0002 42.106C28.5743 42.106 23.9437 41.1916 21.7012 39.4595V45.3533C21.7012 46.1754 22.8469 47.0793 24.7592 47.7713C26.9484 48.5635 29.8783 48.9997 33.0019 48.9997C34.8395 49.0066 36.6737 48.8423 38.4808 48.5093C41.9048 47.8523 44.2993 46.5546 44.2993 45.3533V39.4595C42.0567 41.1916 37.4262 42.106 33.0002 42.106ZM34.984 46.11H31.0164C30.6353 46.11 30.3264 45.8011 30.3264 45.42C30.3264 45.039 30.6353 44.73 31.0164 44.73H34.984C35.3651 44.73 35.674 45.039 35.674 45.42C35.674 45.8011 35.3651 46.11 34.984 46.11Z" fill="#E2111E"></path><path d="M33.0002 33.8894C28.5743 33.8894 23.9437 32.975 21.7012 31.2429V37.0795C21.7012 37.9016 22.8469 38.8056 24.7592 39.4976C26.9484 40.2898 29.8783 40.726 33.0019 40.726C36.1254 40.726 39.0528 40.2898 41.242 39.4976C43.1543 38.8056 44.2993 37.9017 44.2993 37.0795V31.2428C42.0567 32.9749 37.4262 33.8894 33.0002 33.8894ZM34.984 37.7436H31.0164C30.6353 37.7436 30.3264 37.4347 30.3264 37.0536C30.3264 36.6725 30.6353 36.3636 31.0164 36.3636H34.984C35.3651 36.3636 35.674 36.6725 35.674 37.0536C35.674 37.4347 35.3651 37.7436 34.984 37.7436Z" fill="#E2111E"></path><path d="M33.0002 25.6729C28.5743 25.6729 23.9437 24.7584 21.7012 23.0262V28.8629C21.7012 29.6851 22.8469 30.5891 24.7592 31.281C26.9484 32.0732 29.8783 32.5094 33.0019 32.5094C36.1254 32.5094 39.0528 32.0732 41.242 31.281C43.1543 30.5891 44.2993 29.6851 44.2993 28.8629V23.0262C42.0567 24.7584 37.4262 25.6729 33.0002 25.6729ZM34.984 29.6359H31.0164C30.6353 29.6359 30.3264 29.327 30.3264 28.9459C30.3264 28.5648 30.6353 28.2559 31.0164 28.2559H34.984C35.3651 28.2559 35.674 28.5648 35.674 28.9459C35.674 29.327 35.3651 29.6359 34.984 29.6359Z" fill="#E2111E"></path></g><defs><clipPath id="clip0"><rect width="32" height="32" fill="white" transform="translate(17 17)"></rect></clipPath></defs></svg>
