<svg xmlns="http://www.w3.org/2000/svg" width="28" height="28" viewBox="0 0 28 28" fill="none"><path d="M11.7291 10.4416C18.2069 10.4416 23.4583 8.10414 23.4583 5.22078C23.4583 2.33742 18.2069 0 11.7291 0C5.25131 0 0 2.33742 0 5.22078C0 8.10414 5.25131 10.4416 11.7291 10.4416Z" fill="#11D147"></path><path d="M14.4453 24.3943C13.6231 24.1849 13.0091 23.5146 12.854 22.6956C12.483 22.7119 12.1077 22.7205 11.7291 22.7205C5.25007 22.7205 0 20.3851 0 17.4998C0 18.7038 0 19.5087 0 21.4915C0 24.3758 5.25007 26.7123 11.7291 26.7123C12.6609 26.7123 13.5634 26.6592 14.4333 26.567C14.0559 25.8977 14.0385 25.0711 14.4453 24.3943Z" fill="#11D147"></path><path d="M11.7291 21.2889C12.0958 21.2889 12.4559 21.2791 12.8139 21.265V20.6662C12.8139 19.664 13.4983 18.8016 14.4561 18.563C14.2045 18.1367 14.1123 17.6518 14.1719 17.1843C13.3833 17.258 12.5676 17.2982 11.7291 17.2982C5.25007 17.2982 0 14.9628 0 12.0774C0 13.2814 0 14.0863 0 16.0692C0.00108472 18.9524 5.25007 21.2889 11.7291 21.2889Z" fill="#11D147"></path><path d="M11.729 15.8652C12.8875 15.8652 14.0048 15.7881 15.0624 15.6482L15.9388 14.7718C16.3586 14.3509 16.914 14.1361 17.4737 14.1361C17.8501 14.1361 18.2276 14.2337 18.5671 14.4322C18.8144 13.4874 19.6714 12.8138 20.665 12.8138H22.2921C22.3214 12.8138 22.3506 12.8203 22.3789 12.8214C23.0655 12.1587 23.4571 11.4221 23.4571 10.6444C23.4571 9.5846 23.4571 8.48035 23.4571 6.65259C23.4571 9.53687 18.207 11.8734 11.7279 11.8734C5.24887 11.8734 0.000976562 9.53687 0.000976562 6.65259C0.000976562 7.85663 0.000976562 8.6615 0.000976562 10.6444C0.000976562 13.5287 5.24996 15.8652 11.729 15.8652Z" fill="#11D147"></path><path d="M28.0001 22.2923V20.6652L26.0639 20.3484C25.95 19.8907 25.7699 19.4601 25.5323 19.063L26.6605 17.4555L25.5096 16.3046L23.9215 17.4468C23.5256 17.2071 23.0917 17.0238 22.6307 16.9099L22.2923 14.9834H20.6652L20.3517 16.9044C19.8896 17.0173 19.4536 17.1973 19.0565 17.4349L17.4728 16.3046L16.3219 17.4555L17.436 19.0479C17.1941 19.447 17.0107 19.882 16.8958 20.3474L14.9834 20.6652V22.2923L16.8947 22.6307C17.0086 23.0961 17.1919 23.5321 17.4349 23.9313L16.3057 25.5096L17.4566 26.6615L19.0511 25.5454C19.4503 25.7851 19.8853 25.9651 20.3463 26.079L20.6652 28.0001H22.2923L22.634 26.0736C23.0928 25.9586 23.5267 25.7742 23.9226 25.5345L25.5291 26.6615L26.6789 25.5096L25.5323 23.9183C25.7699 23.5223 25.95 23.0906 26.0628 22.6307L28.0001 22.2923ZM21.4917 23.761C20.24 23.761 19.2225 22.7457 19.2225 21.4917C19.2225 20.24 20.24 19.2225 21.4917 19.2225C22.7457 19.2225 23.761 20.24 23.761 21.4917C23.761 22.7457 22.7457 23.761 21.4917 23.761Z" fill="#11D147"></path></svg>
