<svg width="60" height="60" viewBox="0 0 60 60" fill="none" xmlns="http://www.w3.org/2000/svg" class="docker__icon_PNet"><title>Docker</title><circle cx="30" cy="30" r="30" fill="#0091E2"></circle><path d="M50.335 26.777c-.11-.092-1.106-.847-3.243-.847-.552 0-1.123.055-1.676.147-.405-2.818-2.745-4.182-2.837-4.255l-.571-.332-.369.534c-.46.719-.81 1.53-1.013 2.358-.387 1.603-.147 3.114.663 4.403-.976.553-2.56.682-2.892.7h-26.16c-.682 0-1.235.553-1.235 1.235a18.642 18.642 0 001.143 6.724c.902 2.358 2.247 4.108 3.979 5.177 1.953 1.197 5.14 1.879 8.732 1.879a26.78 26.78 0 004.845-.442 19.996 19.996 0 006.338-2.303 17.347 17.347 0 004.31-3.537c2.082-2.34 3.317-4.956 4.22-7.277h.368c2.266 0 3.666-.903 4.44-1.677a4.905 4.905 0 001.179-1.731l.166-.48-.387-.276z" fill="#fff"></path><path d="M14.669 28.73h3.5a.31.31 0 00.313-.313v-3.132a.31.31 0 00-.313-.313h-3.5a.31.31 0 00-.314.313v3.132c.019.184.148.313.314.313zM19.495 28.73h3.5a.31.31 0 00.314-.313v-3.132a.31.31 0 00-.313-.313h-3.5a.31.31 0 00-.314.313v3.132c.019.184.148.313.313.313zM24.414 28.73h3.5a.31.31 0 00.314-.313v-3.132a.31.31 0 00-.314-.313h-3.5a.31.31 0 00-.313.313v3.132a.3.3 0 00.313.313zM29.26 28.73h3.5a.31.31 0 00.313-.313v-3.132a.31.31 0 00-.313-.313h-3.5a.31.31 0 00-.314.313v3.132a.31.31 0 00.313.313zM19.495 24.253h3.5a.323.323 0 00.314-.313v-3.132a.31.31 0 00-.313-.313h-3.5a.31.31 0 00-.314.313v3.132c.019.166.148.313.313.313zM24.414 24.253h3.5a.323.323 0 00.314-.313v-3.132a.31.31 0 00-.314-.313h-3.5a.31.31 0 00-.313.313v3.132a.31.31 0 00.313.313zM29.26 24.253h3.5a.323.323 0 00.313-.313v-3.132a.323.323 0 00-.313-.313h-3.5a.31.31 0 00-.314.313v3.132c0 .166.147.313.313.313zM29.26 19.758h3.5a.31.31 0 00.313-.313v-3.132A.323.323 0 0032.76 16h-3.5a.31.31 0 00-.314.313v3.132c0 .166.147.313.313.313zM34.141 28.73h3.5a.31.31 0 00.314-.313v-3.132a.31.31 0 00-.314-.313h-3.5a.31.31 0 00-.313.313v3.132c.018.184.147.313.313.313z" fill="#fff"></path></svg>
