<svg xmlns="http://www.w3.org/2000/svg" width="24" height="24" viewBox="0 0 24 24" fill="none"><path d="M12 0C5.40956 0 0 5.40891 0 12C0 18.5911 5.40956 24 12 24C18.5904 24 24 18.5911 24 12C24 5.40891 18.5904 0 12 0ZM12 21.1406C6.96 21.1406 2.85938 17.04 2.85938 12C2.85938 6.96 6.96 2.85938 12 2.85938C17.04 2.85938 21.1406 6.96 21.1406 12C21.1406 17.04 17.04 21.1406 12 21.1406Z" fill="#FC593B"></path><path d="M19.6983 11.2969C19.5527 9.69161 18.9171 8.22658 17.939 7.0541L16.9709 8.02225L15.9766 7.02799L16.9447 6.05993C15.7723 5.08225 14.3075 4.44682 12.7027 4.30127V5.67189H11.2964V4.30127C9.69155 4.44682 8.22675 5.08225 7.05441 6.05993L8.02247 7.02799L7.0282 8.02225L6.06005 7.0541C5.082 8.22658 4.44633 9.69161 4.30078 11.2969H5.67141V12.7031H4.30078C4.44633 14.3084 5.082 15.7735 6.06005 16.9459L7.0282 15.9778L8.02247 16.9721L7.05441 17.9401C8.22675 18.9178 9.69155 19.5532 11.2964 19.6988V18.3281H12.7027V19.6988C14.3075 19.5532 15.7723 18.9178 16.9447 17.9401L15.9766 16.9721L16.9709 15.9778L17.939 16.9459C18.9171 15.7735 19.5527 14.3084 19.6983 12.7031H18.3277V11.2969H19.6983ZM14.4852 15.4799L11.2964 12.2912V7.07814H12.7027V11.7089L15.4794 14.4857L14.4852 15.4799Z" fill="#FC593B"></path></svg>
