<svg xmlns="http://www.w3.org/2000/svg" width="66" height="66" viewBox="0 0 66 66" fill="none"><circle opacity="0.1" cx="33" cy="33" r="33" fill="#8B29D8"></circle><g clip-path="url(#clip0)"><path d="M32.0615 18.197C28.4476 18.4045 25.0586 19.8088 22.3535 22.2196L26.537 26.4031C28.1114 25.0924 30.023 24.3003 32.0615 24.1141V18.197Z" fill="#8B29D8"></path><path d="M25.2111 27.7284L21.0277 23.5449C18.6148 26.2492 17.2087 29.6385 17 33.2532H22.9173C23.1048 31.2144 23.8986 29.3026 25.2111 27.7284Z" fill="#8B29D8"></path><path d="M43.0809 33.2532H48.9982C48.7895 29.6385 47.3835 26.2492 44.9705 23.5449L40.7871 27.7284C42.0997 29.3025 42.8934 31.2144 43.0809 33.2532Z" fill="#8B29D8"></path><path d="M43.0814 35.1283C42.9499 36.5722 42.5379 37.7766 42.0505 38.7427C42.5259 39.4759 42.9223 40.0955 43.1842 40.507C43.8973 41.6277 43.7394 43.0664 42.8002 44.0057C42.5721 44.2337 42.3116 44.4175 42.0293 44.5533L43.0036 45.5277C43.187 45.711 43.4274 45.8027 43.6677 45.8027C43.908 45.8027 44.1484 45.711 44.3317 45.5277C47.1394 42.7202 48.7766 39.0568 49.0007 35.1283H43.0814Z" fill="#8B29D8"></path><path d="M22.9194 35.1283H17C17.2241 39.0568 18.8613 42.7202 21.6689 45.5277C21.8523 45.7111 22.0926 45.8028 22.3329 45.8028C22.5733 45.8028 22.8136 45.711 22.997 45.5277L25.8415 42.683C26.2082 42.3163 26.2082 41.7217 25.8415 41.3549C25.0992 40.6126 23.2294 38.5344 22.9194 35.1283Z" fill="#8B29D8"></path><path d="M43.6454 22.2196C40.9404 19.8087 37.5514 18.4045 33.9375 18.197V24.1141C35.9759 24.3003 37.8876 25.0924 39.4619 26.4031L43.6454 22.2196Z" fill="#8B29D8"></path><path d="M35.0841 32.1234C33.9355 30.9748 32.0666 30.9748 30.9181 32.1234C29.7695 33.2719 29.7695 35.1408 30.9181 36.2894C32.3691 37.7404 39.5 42.2935 40.3084 42.8079C40.6791 43.0438 41.1639 42.9906 41.4746 42.6799C41.7853 42.3692 41.8386 41.8844 41.6026 41.5136C41.0882 40.7053 36.5351 33.5743 35.0841 32.1234Z" fill="#8B29D8"></path></g><defs><clipPath id="clip0"><rect width="32" height="32" fill="white" transform="translate(17 16)"></rect></clipPath></defs></svg>
